<mxfile host="65bd71144e">
    <diagram id="SwrR80flYsWzBHwLdvJS" name="Page-1">
        <mxGraphModel dx="1984" dy="1424" grid="1" gridSize="10" guides="1" tooltips="1" connect="1" arrows="1" fold="1" page="1" pageScale="1" pageWidth="1169" pageHeight="827" math="0" shadow="0">
            <root>
                <mxCell id="0"/>
                <mxCell id="1" parent="0"/>
                <mxCell id="7" value="&lt;span&gt;#&amp;nbsp;&lt;span style=&quot;font-family: &amp;quot;Droid Sans Mono&amp;quot;, &amp;quot;monospace&amp;quot;, monospace; font-size: 18px; background-color: light-dark(#ffffff, var(--ge-dark-color, #121212));&quot;&gt;&lt;font style=&quot;color: rgb(51, 0, 0);&quot;&gt;UserPostsIndex&lt;/font&gt;&lt;/span&gt;&lt;/span&gt;" style="rounded=1;whiteSpace=wrap;html=1;labelBackgroundColor=default;" parent="1" vertex="1">
                    <mxGeometry x="120" y="160" width="200" height="60" as="geometry"/>
                </mxCell>
                <mxCell id="13" style="edgeStyle=none;html=1;" parent="1" source="6" target="11" edge="1">
                    <mxGeometry relative="1" as="geometry"/>
                </mxCell>
                <mxCell id="15" style="edgeStyle=none;html=1;entryX=0.5;entryY=0;entryDx=0;entryDy=0;" parent="1" source="6" target="7" edge="1">
                    <mxGeometry relative="1" as="geometry"/>
                </mxCell>
                <mxCell id="6" value="#&amp;nbsp;&lt;font style=&quot;font-size: 18px;&quot;&gt;Blog&lt;/font&gt;" style="rounded=1;whiteSpace=wrap;html=1;labelBackgroundColor=none;fontColor=#330000;" parent="1" vertex="1">
                    <mxGeometry x="270" y="20" width="220" height="60" as="geometry"/>
                </mxCell>
                <mxCell id="18" style="edgeStyle=none;html=1;entryX=0.571;entryY=0.021;entryDx=0;entryDy=0;entryPerimeter=0;" parent="1" source="7" target="10" edge="1">
                    <mxGeometry relative="1" as="geometry"/>
                </mxCell>
                <mxCell id="8" value="# &lt;font color=&quot;#de5971&quot; face=&quot;Droid Sans Mono, monospace, monospace&quot;&gt;&lt;span style=&quot;font-size: 18px;&quot;&gt;Post&lt;/span&gt;&lt;/font&gt;" style="rounded=1;whiteSpace=wrap;html=1;labelBackgroundColor=default;" parent="1" vertex="1">
                    <mxGeometry x="560" y="440" width="220" height="60" as="geometry"/>
                </mxCell>
                <mxCell id="9" value="# &lt;font color=&quot;#de5971&quot; face=&quot;Droid Sans Mono, monospace, monospace&quot;&gt;&lt;span style=&quot;font-size: 18px;&quot;&gt;UserPost&lt;/span&gt;&lt;/font&gt;" style="rounded=1;whiteSpace=wrap;html=1;labelBackgroundColor=default;" parent="1" vertex="1">
                    <mxGeometry x="41" y="446" width="200" height="60" as="geometry"/>
                </mxCell>
                <mxCell id="19" style="edgeStyle=none;html=1;entryX=0.5;entryY=0;entryDx=0;entryDy=0;" parent="1" source="10" target="9" edge="1">
                    <mxGeometry relative="1" as="geometry"/>
                </mxCell>
                <mxCell id="10" value="# &lt;font color=&quot;#de5971&quot; face=&quot;Droid Sans Mono, monospace, monospace&quot;&gt;&lt;span style=&quot;font-size: 18px;&quot;&gt;UserPostsList&lt;br&gt;&lt;/span&gt;&lt;/font&gt;" style="rounded=1;whiteSpace=wrap;html=1;labelBackgroundColor=default;" parent="1" vertex="1">
                    <mxGeometry x="90" y="300" width="190" height="60" as="geometry"/>
                </mxCell>
                <mxCell id="17" style="edgeStyle=none;html=1;" parent="1" source="11" target="8" edge="1">
                    <mxGeometry relative="1" as="geometry"/>
                </mxCell>
                <mxCell id="11" value="&lt;font&gt;&lt;font style=&quot;color: rgb(204, 0, 0);&quot;&gt;# &lt;/font&gt;&lt;font style=&quot;color: rgb(204, 0, 0);&quot; face=&quot;Droid Sans Mono, monospace, monospace&quot;&gt;&lt;span style=&quot;font-size: 18px;&quot;&gt;LatestPost&lt;/span&gt;&lt;/font&gt;&lt;/font&gt;" style="rounded=1;whiteSpace=wrap;html=1;labelBackgroundColor=default;fontColor=#330000;" parent="1" vertex="1">
                    <mxGeometry x="570" y="200" width="200" height="60" as="geometry"/>
                </mxCell>
                <mxCell id="21" value="likesCount" style="shape=mxgraph.sysml.sendSigAct;whiteSpace=wrap;align=center;fontStyle=2;fillColor=#0050ef;fontColor=#ffffff;strokeColor=#001DBC;fontSize=17;" parent="1" vertex="1">
                    <mxGeometry x="700" y="250" width="140" height="20" as="geometry"/>
                </mxCell>
                <mxCell id="22" value="userPosts" style="shape=mxgraph.sysml.sendSigAct;whiteSpace=wrap;align=center;fontStyle=2;fillColor=#0050ef;fontColor=#ffffff;strokeColor=#001DBC;fontSize=17;rotation=32;" parent="1" vertex="1">
                    <mxGeometry x="460" y="101.97999999999999" width="100" height="18.53" as="geometry"/>
                </mxCell>
                <mxCell id="23" value="deletePost" style="shape=mxgraph.sysml.sendSigAct;whiteSpace=wrap;align=center;fontStyle=2;fillColor=#0050ef;fontColor=#ffffff;strokeColor=#001DBC;fontSize=17;rotation=32;" parent="1" vertex="1">
                    <mxGeometry x="440" y="130.00000000000003" width="97.29" height="21.4" as="geometry"/>
                </mxCell>
                <mxCell id="24" value="&lt;div style=&quot;&quot;&gt;&lt;b style=&quot;background-color: initial;&quot;&gt;&lt;font color=&quot;#007fff&quot; style=&quot;font-size: 20px;&quot;&gt;&lt;i&gt;signIn&lt;/i&gt;&lt;/font&gt;&lt;/b&gt;&lt;/div&gt;&lt;div style=&quot;&quot;&gt;&lt;/div&gt;&lt;div style=&quot;&quot;&gt;&lt;b style=&quot;background-color: initial;&quot;&gt;&lt;font color=&quot;#007fff&quot; style=&quot;font-size: 20px;&quot;&gt;&lt;i&gt;post&lt;/i&gt;&lt;/font&gt;&lt;/b&gt;&lt;/div&gt;&lt;p style=&quot;margin: 10px 0px 0px 10px;&quot;&gt;&lt;/p&gt;" style="shape=note;html=1;size=15;spacingLeft=5;align=left;html=1;overflow=fill;whiteSpace=wrap;align=center;labelBorderColor=#CCCC00;horizontal=1;verticalAlign=top;" parent="1" vertex="1">
                    <mxGeometry x="450" y="215" width="140" height="55" as="geometry"/>
                </mxCell>
                <mxCell id="28" value="signIn" style="shape=mxgraph.sysml.sendSigAct;whiteSpace=wrap;align=center;fontStyle=2;fillColor=#0050ef;fontColor=#ffffff;strokeColor=#001DBC;fontSize=17;rotation=90;" parent="1" vertex="1">
                    <mxGeometry x="644" y="351.47" width="82" height="18.53" as="geometry"/>
                </mxCell>
                <mxCell id="29" value="post" style="shape=mxgraph.sysml.sendSigAct;whiteSpace=wrap;align=center;fontStyle=2;fillColor=#0050ef;fontColor=#ffffff;strokeColor=#001DBC;fontSize=17;rotation=90;" parent="1" vertex="1">
                    <mxGeometry x="615" y="352" width="80" height="18.53" as="geometry"/>
                </mxCell>
            </root>
        </mxGraphModel>
    </diagram>
</mxfile>